<?xml version="1.0" encoding="UTF-8"?>
<svg version="1.1" xmlns="http://www.w3.org/2000/svg" width="666" height="142">
<path d="M0 0 C1.16015625 -0.04350586 1.16015625 -0.04350586 2.34375 -0.08789062 C8.1462161 -0.15117255 12.4140581 1.05659692 17.25 4.3125 C23.83784613 10.8433085 24.34529498 20.76199823 24.47705078 29.50634766 C24.48436348 32.24664451 24.46604882 34.98635597 24.4453125 37.7265625 C24.44157409 39.19200445 24.43873104 40.65744893 24.43673706 42.12289429 C24.42916565 45.94674802 24.40957444 49.77044552 24.3873291 53.59423828 C24.36672933 57.50941862 24.35770538 61.42462463 24.34765625 65.33984375 C24.32632118 72.99746642 24.29226554 80.65496117 24.25 88.3125 C26.25965662 88.0434435 28.26107047 87.70654368 30.25 87.3125 C31.35920727 85.61818638 31.35920727 85.61818638 31.6875 83.5 C32.79664449 79.94308835 33.19204125 79.35863043 36.3125 76.875 C40.67749264 74.76711894 45.44013269 74.26853412 50.25 74.3125 C50.91 74.6425 51.57 74.9725 52.25 75.3125 C52.5234375 77.5 52.5234375 77.5 52.625 80.3125 C52.97239681 85.33992176 54.13839713 89.06439898 56.41015625 93.53515625 C57.25 95.3125 57.25 95.3125 57.25 97.3125 C49.99548737 99.27507347 42.39425473 100.91945592 35.1875 98.125 C32.81284097 95.90354478 32.74833172 94.45147606 32.25 91.3125 C31.51885986 91.49014893 30.78771973 91.66779785 30.03442383 91.85083008 C26.71679481 92.63911242 23.39062921 93.3823596 20.0625 94.125 C18.91201172 94.40537109 17.76152344 94.68574219 16.57617188 94.97460938 C13.41574736 95.66165818 10.48393472 96.22816642 7.25 96.3125 C4.12661887 94.27420182 2.86416872 93.07879363 1.64599609 89.57543945 C1.09587737 86.43175853 1.13622218 83.41121834 1.15234375 80.21875 C1.1557225 79.48813354 1.15910126 78.75751709 1.1625824 78.00476074 C1.25012199 65.42671227 1.59364116 52.8486889 1.89819336 40.27441406 C1.98047034 36.83929057 2.05524517 33.40406762 2.12890625 29.96875 C2.15594131 28.93109497 2.18297638 27.89343994 2.21083069 26.82434082 C2.75783767 16.34128792 2.75783767 16.34128792 -0.375 6.6875 C-3.75467474 4.73084621 -6.04422977 5.45732226 -9.75 6.3125 C-10.40365399 7.85086708 -11.04753603 9.39338766 -11.6875 10.9375 C-12.04714844 11.79601563 -12.40679688 12.65453125 -12.77734375 13.5390625 C-14.54646085 18.58353295 -14.87703395 23.48917677 -14.89526367 28.80517578 C-14.90164352 30.07313995 -14.90802338 31.34110413 -14.91459656 32.64749146 C-14.91612486 34.01759808 -14.91723902 35.38770522 -14.91796875 36.7578125 C-14.92118524 38.17455071 -14.9245496 39.5912886 -14.92805481 41.00802612 C-14.93402413 43.96841198 -14.93589679 46.92876871 -14.93530273 49.88916016 C-14.93520082 53.67990221 -14.94889325 57.47045822 -14.96607494 61.26115608 C-14.97719395 64.18310402 -14.97922203 67.1050068 -14.97869301 70.02697372 C-14.97987172 71.42479981 -14.98428742 72.82262712 -14.99202538 74.22043228 C-15.00182998 76.17313469 -14.99768174 78.12589206 -14.99291992 80.07861328 C-14.99434494 81.18858673 -14.99576996 82.29856018 -14.99723816 83.44216919 C-14.7514057 86.29618039 -14.32320655 87.941129 -12.75 90.3125 C-12.09 90.6425 -11.43 90.9725 -10.75 91.3125 C-10.75 91.9725 -10.75 92.6325 -10.75 93.3125 C-13.62320746 93.84557937 -16.4978139 94.36424371 -19.375 94.875 C-20.18324219 95.02646484 -20.99148437 95.17792969 -21.82421875 95.33398438 C-26.35718142 96.12633151 -30.24997266 96.69020068 -34.75 95.3125 C-37.06800721 91.83548919 -37.0071341 90.46855673 -37.0246582 86.36328125 C-37.03419022 85.13770508 -37.04372223 83.91212891 -37.05354309 82.64941406 C-37.05328146 81.30794242 -37.0523434 79.96647076 -37.05078125 78.625 C-37.05467138 77.24316276 -37.05900671 75.86132671 -37.06376648 74.47949219 C-37.0712334 71.57759743 -37.07093676 68.67582425 -37.06567383 65.77392578 C-37.05991801 62.08343607 -37.07671236 58.39345462 -37.1000185 54.70304871 C-37.11487884 51.84427045 -37.11561034 48.98561059 -37.11250877 46.12680054 C-37.11326214 44.11356387 -37.12705628 42.1003454 -37.14118958 40.0871582 C-37.07849679 27.49791914 -35.06561733 16.77499215 -26.0625 7.5625 C-18.48303462 1.73517077 -9.26806432 0.11357922 0 0 Z " fill="#FFFFFF" transform="translate(40.75,16.6875)"/>
<path d="M0 0 C2.00277029 1.69248194 3.88081636 3.3268367 5.59375 5.3125 C5.59375 5.9725 5.59375 6.6325 5.59375 7.3125 C6.25375 6.590625 6.91375 5.86875 7.59375 5.125 C14.14187921 -1.38613413 21.61133854 -4.65653581 30.84375 -5.0625 C38.60630082 -4.88123164 45.72936906 -2.81942176 51.53125 2.5 C59.34832928 11.25437895 59.75360163 21.45863043 59.69140625 32.62109375 C59.6899913 33.58781509 59.68857635 34.55453644 59.68711853 35.55055237 C59.68155221 38.61706732 59.66900599 41.68350738 59.65625 44.75 C59.65123065 46.83788957 59.6466685 48.92578028 59.64257812 51.01367188 C59.63159382 56.1133098 59.61435255 61.21289223 59.59375 66.3125 C54.64375 66.3125 49.69375 66.3125 44.59375 66.3125 C44.564021 64.5656189 44.564021 64.5656189 44.53369141 62.78344727 C44.45713298 58.42777311 44.36849639 54.07241134 44.27636719 49.71704102 C44.23828368 47.83852341 44.20339634 45.959938 44.171875 44.08129883 C44.12577287 41.36775614 44.06785715 38.65467208 44.0078125 35.94140625 C43.99626129 35.11290665 43.98471008 34.28440704 43.97280884 33.43080139 C43.80879552 26.82600234 43.26423332 20.26797049 39.96875 14.4375 C36.2912681 11.14712145 32.45373373 9.39677208 27.47265625 9.25 C23.19209403 9.6384064 19.93203284 10.62332771 16.59375 13.3125 C12.90270122 18.13136924 11.51141022 21.74043215 11.38842773 27.71386719 C11.36848251 28.5744574 11.34853729 29.43504761 11.32798767 30.32171631 C11.30291893 31.70160736 11.30291893 31.70160736 11.27734375 33.109375 C11.25656265 34.05814514 11.23578156 35.00691528 11.21437073 35.98443604 C11.14907066 39.01038482 11.09008112 42.0364192 11.03125 45.0625 C10.9880462 47.11589421 10.94443131 49.16927982 10.90039062 51.22265625 C10.79340927 56.2525168 10.69208677 61.28246332 10.59375 66.3125 C5.64375 66.3125 0.69375 66.3125 -4.40625 66.3125 C-4.4155957 64.99121094 -4.42494141 63.66992188 -4.43457031 62.30859375 C-4.47460786 57.38068612 -4.54040515 52.45339375 -4.61376953 47.52587891 C-4.64189943 45.39802995 -4.66315346 43.27007806 -4.67724609 41.14208984 C-4.69878608 38.0733602 -4.74549371 35.00585789 -4.796875 31.9375 C-4.79810364 30.99447021 -4.79933228 30.05144043 -4.80059814 29.07983398 C-4.93302086 23.03356682 -5.94692994 18.35875978 -9.40625 13.3125 C-13.18710793 10.05676123 -17.50134938 9.32184267 -22.40625 9.3125 C-27.95538705 10.2530317 -30.85389065 11.9481728 -34.40625 16.3125 C-37.07046977 21.16255106 -36.75536473 26.25519701 -36.8203125 31.64453125 C-36.83967865 32.63627853 -36.8590448 33.62802582 -36.8789978 34.64982605 C-36.93863453 37.8081307 -36.98511555 40.9664721 -37.03125 44.125 C-37.0694444 46.27019792 -37.10849698 48.41538075 -37.1484375 50.56054688 C-37.24432313 55.81107488 -37.32841312 61.06167467 -37.40625 66.3125 C-42.35625 66.3125 -47.30625 66.3125 -52.40625 66.3125 C-52.40625 43.2125 -52.40625 20.1125 -52.40625 -3.6875 C-47.45625 -3.6875 -42.50625 -3.6875 -37.40625 -3.6875 C-37.07625 -2.0375 -36.74625 -0.3875 -36.40625 1.3125 C-35.51873047 0.78849609 -35.51873047 0.78849609 -34.61328125 0.25390625 C-33.82308594 -0.20113281 -33.03289062 -0.65617187 -32.21875 -1.125 C-31.44144531 -1.57746094 -30.66414063 -2.02992187 -29.86328125 -2.49609375 C-20.81925227 -6.88151321 -8.17405918 -5.73245709 0 0 Z " fill="#FFFFFF" transform="translate(539.40625,45.6875)"/>
<path d="M0 0 C46.68780788 0 46.68780788 0 55.37890625 7.3359375 C59.96197927 12.04048956 62.07378752 17.38371941 62 24 C61.49678807 31.54817897 58.28719248 35.80009608 53 41 C52.34 41.66 51.68 42.32 51 43 C51.53109375 43.3403125 52.0621875 43.680625 52.609375 44.03125 C57.78996508 47.58581546 61.42619583 50.77363726 63 57 C63.66334248 62.9769921 64.27077249 69.49290326 61.4375 75 C53.79710417 84.40356409 47.21461295 86.64282078 35 88 C23.45 88 11.9 88 0 88 C0 58.96 0 29.92 0 0 Z M15 13 C15 20.92 15 28.84 15 37 C30.7561195 38.07774272 30.7561195 38.07774272 44.5625 31.8125 C46.47925453 28.06232809 46.67845402 25.12935596 46 21 C44.6776434 17.6941085 43.53615172 16.36207649 40.59375 14.375 C35.55154406 12.44580816 30.966328 12.67914382 25.625 12.8125 C22.11875 12.874375 18.6125 12.93625 15 13 Z M15 49 C15 57.58 15 66.16 15 75 C18.67125 75.061875 22.3425 75.12375 26.125 75.1875 C27.2711377 75.21481201 28.41727539 75.24212402 29.59814453 75.27026367 C36.53888177 75.32685569 41.04511373 74.64384561 46.375 69.875 C48.65409972 65.84274665 48.77481718 62.52908599 48 58 C45.92004783 53.50730332 43.7714657 51.44608618 39.19116211 49.58886719 C34.72857783 48.3895632 30.14649903 48.69709148 25.5625 48.8125 C22.076875 48.874375 18.59125 48.93625 15 49 Z " fill="#FFFFFF" transform="translate(140,24)"/>
<path d="M0 0 C1.6694607 1.17530033 3.28640495 2.42460336 4.890625 3.6875 C5.220625 1.3775 5.550625 -0.9325 5.890625 -3.3125 C10.840625 -3.3125 15.790625 -3.3125 20.890625 -3.3125 C20.890625 19.7875 20.890625 42.8875 20.890625 66.6875 C15.940625 66.6875 10.990625 66.6875 5.890625 66.6875 C5.395625 62.7275 5.395625 62.7275 4.890625 58.6875 C4.37113281 59.09742188 3.85164063 59.50734375 3.31640625 59.9296875 C2.61902344 60.46851562 1.92164063 61.00734375 1.203125 61.5625 C0.51863281 62.09617187 -0.16585937 62.62984375 -0.87109375 63.1796875 C-7.58469627 67.70228885 -15.96567029 68.43169558 -23.86328125 67.2890625 C-33.3812524 64.7568949 -40.34933441 59.65075916 -45.66796875 51.3828125 C-50.89895556 41.60129244 -51.78858285 30.0555344 -48.921875 19.375 C-45.7161122 10.20295642 -40.30055602 2.91643902 -31.5703125 -1.63671875 C-21.19421548 -5.89779606 -9.69760741 -6.03406683 0 0 Z M-27.234375 13.49609375 C-33.17884863 20.04739906 -34.64374088 25.52921407 -34.484375 34.32421875 C-33.82138697 40.27039262 -31.70271844 45.23034965 -27.32421875 49.37890625 C-21.40985442 53.78642617 -16.2299032 54.26785653 -9.109375 53.6875 C-3.22124292 51.84024288 0.34712551 47.5586431 3.890625 42.6875 C6.68197302 37.10480396 6.75728676 30.51976997 5.390625 24.4765625 C3.39870557 18.56871056 0.36284835 14.24607559 -4.984375 10.875 C-12.7548196 7.92223105 -20.65015727 7.89224667 -27.234375 13.49609375 Z " fill="#FFFFFF" transform="translate(448.109375,45.3125)"/>
<path d="M0 0 C5.61 0 11.22 0 17 0 C22.94 16.17 28.88 32.34 35 49 C40.47222032 35.35798596 45.93372743 21.71562536 51.21850586 7.99975586 C51.57050049 7.09233643 51.92249512 6.18491699 52.28515625 5.25 C52.59332275 4.45078125 52.90148926 3.6515625 53.21899414 2.828125 C54 1 54 1 55 0 C57.53049402 -0.07313567 60.03304837 -0.09247527 62.5625 -0.0625 C63.62887695 -0.05573242 63.62887695 -0.05573242 64.71679688 -0.04882812 C66.47790013 -0.03700864 68.23896036 -0.01907263 70 0 C69.29301446 4.94765734 67.36609826 9.28851836 65.44921875 13.86328125 C64.89955696 15.19039124 64.89955696 15.19039124 64.33879089 16.54431152 C63.12614194 19.46891033 61.90694067 22.39072726 60.6875 25.3125 C59.84160812 27.34775433 58.99607315 29.38315703 58.15087891 31.41870117 C56.36703406 35.71251843 54.58027214 40.00510655 52.79150391 44.296875 C50.4334504 49.95595466 48.08333887 55.61829276 45.73597717 61.28181458 C43.89598607 65.7205562 42.05360721 70.15830388 40.21060181 74.59579468 C39.31980415 76.74121973 38.42964757 78.88691107 37.54013062 81.03286743 C36.29744044 84.02945069 35.05152451 87.02467152 33.8046875 90.01953125 C33.43264694 90.91837036 33.06060638 91.81720947 32.67729187 92.74328613 C32.3376088 93.55736938 31.99792572 94.37145264 31.64794922 95.21020508 C31.2042952 96.27782829 31.2042952 96.27782829 30.75167847 97.36701965 C30 99 30 99 29 100 C26.30345146 100.07319621 23.63308542 100.09242537 20.9375 100.0625 C20.17888672 100.05798828 19.42027344 100.05347656 18.63867188 100.04882812 C16.75908129 100.0370068 14.87953101 100.01907078 13 100 C13.87044786 97.62324521 14.74564914 95.24846435 15.625 92.875 C16.02344116 91.79424194 16.02344116 91.79424194 16.42993164 90.69165039 C17.77294457 87.09622305 19.16572851 83.55421021 20.76953125 80.06640625 C21.31996094 78.86886719 21.87039063 77.67132813 22.4375 76.4375 C23.20900391 74.82681641 23.20900391 74.82681641 23.99609375 73.18359375 C25.8272872 67.37650169 23.91179357 62.21618244 21.68334961 56.74511719 C21.20292709 55.55408386 20.72250458 54.36305054 20.2275238 53.13592529 C19.70247571 51.85623697 19.1774154 50.57655366 18.65234375 49.296875 C18.1148555 47.96918806 17.57821219 46.64115878 17.04237366 45.31280518 C15.63671814 41.83269555 14.2226579 38.35607417 12.80584717 34.88049316 C10.53327499 29.30472845 8.26869021 23.72577114 6.01342964 18.14298248 C5.22469525 16.19619094 4.42936548 14.25218586 3.63352966 12.30828857 C3.15625931 11.12986389 2.67898895 9.95143921 2.18725586 8.73730469 C1.76391464 7.6991864 1.34057343 6.66106812 0.90440369 5.5914917 C0 3 0 3 0 0 Z " fill="#FFFFFF" transform="translate(323,42)"/>
<path d="M0 0 C6.3127622 5.11426725 9.84857948 11.01490881 10.86141968 19.19563293 C10.97075913 22.23340626 10.96255308 25.24605355 10.90234375 28.28515625 C10.89668396 29.38080902 10.89102417 30.47646179 10.88519287 31.60531616 C10.86298679 35.06937271 10.81281914 38.53235529 10.76171875 41.99609375 C10.74163342 44.35935995 10.72338623 46.72264254 10.70703125 49.0859375 C10.66317356 54.84806354 10.59425545 60.60939722 10.51171875 66.37109375 C5.56171875 66.37109375 0.61171875 66.37109375 -4.48828125 66.37109375 C-4.49762695 65.04980469 -4.50697266 63.72851562 -4.51660156 62.3671875 C-4.55663911 57.43927987 -4.6224364 52.5119875 -4.69580078 47.58447266 C-4.72393068 45.4566237 -4.74518471 43.32867181 -4.75927734 41.20068359 C-4.78081733 38.13195395 -4.82752496 35.06445164 -4.87890625 31.99609375 C-4.88013489 31.05306396 -4.88136353 30.11003418 -4.88262939 29.13842773 C-5.01505211 23.09216057 -6.02896119 18.41735353 -9.48828125 13.37109375 C-13.26913918 10.11535498 -17.58338063 9.38043642 -22.48828125 9.37109375 C-28.0374183 10.31162545 -30.9359219 12.00676655 -34.48828125 16.37109375 C-37.15250102 21.22114481 -36.83739598 26.31379076 -36.90234375 31.703125 C-36.9217099 32.69487228 -36.94107605 33.68661957 -36.96102905 34.7084198 C-37.02066578 37.86672445 -37.0671468 41.02506585 -37.11328125 44.18359375 C-37.15147565 46.32879167 -37.19052823 48.4739745 -37.23046875 50.61914062 C-37.32635438 55.86966863 -37.41044437 61.12026842 -37.48828125 66.37109375 C-42.43828125 66.37109375 -47.38828125 66.37109375 -52.48828125 66.37109375 C-52.48828125 43.27109375 -52.48828125 20.17109375 -52.48828125 -3.62890625 C-47.53828125 -3.62890625 -42.58828125 -3.62890625 -37.48828125 -3.62890625 C-37.15828125 -1.97890625 -36.82828125 -0.32890625 -36.48828125 1.37109375 C-35.60076172 0.84708984 -35.60076172 0.84708984 -34.6953125 0.3125 C-33.90511719 -0.14253906 -33.11492187 -0.59757812 -32.30078125 -1.06640625 C-31.52347656 -1.51886719 -30.74617188 -1.97132812 -29.9453125 -2.4375 C-20.74218942 -6.90006366 -8.42037344 -5.51223819 0 0 Z " fill="#FFFFFF" transform="translate(303.48828125,45.62890625)"/>
<path d="M0 0 C4.95 0 9.9 0 15 0 C15 23.1 15 46.2 15 70 C10.05 70 5.1 70 0 70 C0 46.9 0 23.8 0 0 Z " fill="#FFFFFF" transform="translate(218,42)"/>
<path d="M0 0 C4.57631731 2.45124556 7.68661628 5.66229505 9.99609375 10.28125 C10.50339025 15.83656248 10.75869797 20.69955236 8.30859375 25.78125 C3.73137381 30.72959588 0.1247593 33.37803916 -6.69140625 33.65625 C-12.26446076 33.59921582 -15.82469498 31.89787514 -20.00390625 28.28125 C-23.74062387 24.06237527 -24.12392638 18.75073862 -24.00390625 13.28125 C-22.38830557 7.22274745 -19.08521135 3.72267936 -14.00390625 0.28125 C-9.41328016 -1.2489587 -4.62850487 -1.6601265 0 0 Z M-18.296875 7.7890625 C-21.08004243 11.87357442 -21.49305195 15.29258283 -20.68359375 20.1328125 C-19.367583 24.29261659 -16.88114538 27.15490652 -13.109375 29.41796875 C-9.44269895 30.92137396 -5.89177313 30.82798128 -2.00390625 30.28125 C2.42744796 28.06557289 4.95161736 25.80061887 6.99609375 21.28125 C8.16904922 17.42725345 8.09547787 15.59596638 6.87109375 11.71875 C4.38907083 7.16837466 1.99827499 3.94864375 -3.00390625 2.28125 C-9.68180363 1.73388136 -13.68374673 2.40940235 -18.296875 7.7890625 Z " fill="#FFFFFF" transform="translate(639.00390625,26.71875)"/>
<path d="M0 0 C2.875 1.4375 2.875 1.4375 5 4 C5.97499943 7.05613857 6.30759211 9.80445974 6 13 C4.23496686 15.92143417 3.04152365 17.47923817 0 19 C-7.24087591 19.58394161 -7.24087591 19.58394161 -10.4375 17.125 C-13.24954066 13.30062471 -13.40332315 10.75921314 -13 6 C-9.30920537 0.34078157 -6.6962915 -0.56748233 0 0 Z " fill="#FFFFFF" transform="translate(229,15)"/>
<path d="M0 0 C1.875 0.4375 1.875 0.4375 3.875 2.9375 C4.205 3.7625 4.535 4.5875 4.875 5.4375 C3.555 5.4375 2.235 5.4375 0.875 5.4375 C0.875 4.7775 0.875 4.1175 0.875 3.4375 C-1.105 3.7675 -3.085 4.0975 -5.125 4.4375 C-5.125 6.7475 -5.125 9.0575 -5.125 11.4375 C-2.72780568 12.11708603 -2.72780568 12.11708603 -0.125 12.4375 C0.535 11.7775 1.195 11.1175 1.875 10.4375 C2.865 10.7675 3.855 11.0975 4.875 11.4375 C3.125 15.3125 3.125 15.3125 0.875 16.4375 C-2.59000939 16.81413145 -4.48848003 16.82276209 -7.5 15 C-9.82569294 11.33256113 -9.99172198 7.67741022 -9.125 3.4375 C-6.55007727 -0.0823485 -4.12426602 -0.12130194 0 0 Z " fill="#FFFFFF" transform="translate(634.125,35.5625)"/>
</svg>
